<svg width="77" height="80" viewBox="0 0 77 80" fill="none" xmlns="http://www.w3.org/2000/svg">
<path fill-rule="evenodd" clip-rule="evenodd" d="M49.4096 19.1224C49.4096 29.5342 41.3465 37.9747 31.4001 37.9747C31.1032 37.9747 30.8081 37.9672 30.5147 37.9523C28.5318 34.9233 27.3717 31.2576 27.3717 27.3083C27.3717 23.9241 28.2235 20.7482 29.7149 18.0028L36.216 19.0428L37.2054 25.8201L38.1949 19.0428L44.9067 17.969L38.2577 16.9053L37.3149 10.448C39.7415 9.17345 42.4813 8.456 45.3811 8.456C45.678 8.456 45.9732 8.46352 46.2665 8.47838C48.2495 11.5074 49.4096 15.1731 49.4096 19.1224ZM37.0769 10.5754C34.0161 12.2433 31.4705 14.8045 29.7553 17.9288L36.1527 16.9053L37.0769 10.5754ZM46.2665 8.47838C43.0217 3.52186 37.5737 0.270142 31.4001 0.270142C21.4537 0.270142 13.3906 8.71059 13.3906 19.1224C13.3906 29.2235 20.9796 37.4691 30.5147 37.9523C33.7595 42.9088 39.2076 46.1606 45.3811 46.1606C55.3275 46.1606 63.3906 37.7201 63.3906 27.3083C63.3906 17.2072 55.8016 8.96159 46.2665 8.47838Z" fill="url(#paint0_linear_235_3967)"/>
<path fill-rule="evenodd" clip-rule="evenodd" d="M29.1337 74.7892V75.1518H28.0227H26.9117H25.8007H24.6897H23.5787H22.4677H21.3567V74.0408V72.9298H22.4677H23.5787H24.6897H25.8007H26.9117V71.8188V70.7078H25.8007H24.6897H23.5787H22.4677H21.3567V69.5968V68.4858H22.4677H23.5787H24.6897H25.8007H26.9117V67.3748H28.0227H29.1337V68.4858V69.5968V70.7078V71.8188V72.8462C29.1939 72.656 29.2682 72.4566 29.3566 72.2482C29.6331 71.5767 30.0479 70.8755 30.6009 70.1447C31.0354 69.5917 31.5885 68.9893 32.26 68.3375C32.9316 67.6857 33.6623 67.0932 34.4524 66.5599C35.2424 66.0069 36.0325 65.6118 36.8225 65.3748C37.0398 65.3156 37.2669 65.2761 37.5039 65.2563C37.741 65.2168 38.0273 65.1971 38.3631 65.1971C38.6791 65.1971 38.8371 65.2366 38.8371 65.3156C38.8371 65.4143 38.6989 65.4933 38.4224 65.5526C38.1854 65.6118 37.899 65.7106 37.5632 65.8489C37.2274 65.9871 36.9213 66.1352 36.6448 66.2933C36.072 66.6093 35.4696 67.0438 34.8375 67.5968C34.2055 68.1301 33.5833 68.7424 32.9711 69.4337C32.2995 70.1842 31.7465 70.9249 31.312 71.6557C30.8774 72.3667 30.591 72.9593 30.4528 73.4333C30.4133 73.5913 30.3935 73.7296 30.3935 73.8481C30.3935 74.1246 30.5022 74.2628 30.7194 74.2628C30.8577 74.2628 31.0453 74.2036 31.2823 74.0851C31.5193 73.9468 31.8255 73.7197 32.2008 73.4037C32.9513 72.7716 33.7018 72.0507 34.4524 71.2409C35.2227 70.4311 35.914 69.5917 36.5263 68.7226C37.0003 68.0511 37.5533 67.3401 38.1854 66.5895C38.8174 65.8192 39.4791 65.0786 40.1703 64.3675C40.8616 63.6367 41.5332 62.9751 42.185 62.3825C42.8565 61.79 43.4589 61.316 43.9922 60.9604C44.6045 60.5457 45.0291 60.3087 45.2661 60.2494C45.5229 60.1901 45.7402 60.1605 45.9179 60.1605C45.7402 60.2988 45.355 60.6543 44.7625 61.2271C44.1897 61.7801 43.4984 62.4813 42.6886 63.3306C41.8986 64.1799 41.069 65.0983 40.2 66.0859C39.3507 67.0734 38.5705 68.061 37.8595 69.0485C37.3064 69.7991 36.783 70.5792 36.2892 71.389C35.7955 72.1791 35.4696 72.8111 35.3116 73.2852C35.2523 73.4432 35.2128 73.5814 35.1931 73.6999C35.1733 73.8184 35.1634 73.9271 35.1634 74.0258C35.1634 74.3418 35.2918 74.4998 35.5486 74.4998C35.7263 74.4998 35.9337 74.4307 36.1707 74.2925C36.4275 74.1345 36.6843 73.9567 36.941 73.7592C37.2768 73.4827 37.6027 73.1765 37.9187 72.8408C38.2545 72.505 38.5508 72.1791 38.8075 71.8631C38.8116 71.8631 38.8155 71.8632 38.8194 71.8635L38.8197 71.863C39.1555 71.1915 39.5801 70.5298 40.0937 69.878C40.6072 69.2065 41.1306 68.5843 41.6639 68.0115C42.1971 67.419 42.6613 66.9351 43.0563 66.5598C43.2281 66.3881 43.4019 66.237 43.5778 66.1066V65.1527H44.6888H45.7998H46.9108H48.0218H49.1328H50.2438H51.3548V66.2637V67.3747H50.2438H49.1328H48.0218H46.9108H45.7998V68.4857V69.5967V70.7077V71.8187V72.9297V74.0407V75.1517H44.6888H43.5778V74.0407V72.9297V72.7062C42.9132 73.4567 42.3049 74.0545 41.7527 74.4998C41.1602 74.9738 40.4985 75.2108 39.7678 75.2108C39.2345 75.2108 38.8592 75.0726 38.6419 74.796C38.4049 74.4998 38.2864 74.1344 38.2864 73.6998C38.2864 73.4432 38.3221 73.1787 38.3935 72.9062C38.2313 73.074 38.0533 73.2497 37.8595 73.4333C37.5039 73.7888 37.1484 74.1048 36.7929 74.3813C36.5361 74.5986 36.2399 74.7862 35.9041 74.9443C35.5683 75.1023 35.2424 75.1813 34.9264 75.1813C34.4721 75.1813 34.1462 75.0726 33.9487 74.8554C33.771 74.6381 33.6821 74.3616 33.6821 74.0258C33.6821 73.6901 33.7512 73.3247 33.8895 72.9296C34.0277 72.5346 34.1956 72.1495 34.3931 71.7742C34.0574 72.1297 33.692 72.5149 33.2969 72.9296C32.9019 73.3247 32.6452 73.5715 32.5267 73.6703C32.0921 74.0653 31.6774 74.411 31.2823 74.7072C30.8873 74.9838 30.4725 75.1418 30.038 75.1813C29.613 75.2042 29.3116 75.0736 29.1337 74.7892ZM51.3548 67.3747H52.4658H53.5768V68.4857V69.5967V70.7077V71.8187V72.9297V74.0407V75.1517H52.4658H51.3548V74.0407V72.9297V71.8187V70.7077V69.5967V68.4857V67.3747ZM26.9117 67.3748V66.2638V65.1528H25.8007H24.6897H23.5787H22.4677H21.3567H20.2457H19.1347V66.2638V67.3748H20.2457H21.3567H22.4677H23.5787H24.6897H25.8007H26.9117ZM19.1904 70.7078C18.7228 69.9232 18.0968 69.2971 17.3123 68.8294C16.4906 68.3396 15.5663 68.0947 14.5392 68.0947C13.528 68.0947 12.6036 68.3396 11.7662 68.8294C10.9445 69.3192 10.2888 69.9829 9.79896 70.8203C9.43519 71.463 9.211 72.1661 9.12639 72.9297H8.3942H7.2832H6.17219H5.06119H3.95019H2.83919V71.8187V70.7077V69.5967V68.4857V67.3747V66.2637V65.1527V64.0417V62.9307V61.8197H1.72819H0.617188V62.9307V64.0417V65.1527V66.2637V67.3747V68.4857V69.5967V70.7077V71.8187V72.9297V74.0407V75.1517H1.72819H2.83919H3.95019H5.06119H6.17219H7.2832H8.3942H9.28122C9.39951 75.5923 9.57209 76.013 9.79896 76.4138C10.2888 77.2355 10.9445 77.8912 11.7662 78.3811C12.6036 78.8709 13.528 79.1158 14.5392 79.1158C15.5663 79.1158 16.4906 78.8709 17.3123 78.3811C18.1339 77.8912 18.7818 77.2355 19.2558 76.4138C19.7456 75.5764 19.9905 74.652 19.9905 73.6408C19.9905 73.3982 19.9773 73.1613 19.9508 72.9298H20.2457H21.3567V71.8188V70.7078H20.2457H19.1904ZM43.5778 72.1243V71.8187V70.7077V69.5967V68.4857V67.7367C42.9324 68.5347 42.2945 69.3769 41.6639 70.2631C41.6046 70.3422 41.4664 70.5397 41.2491 70.8557C41.0318 71.1717 40.7849 71.5371 40.5084 71.9519C40.2517 72.3666 40.0245 72.7715 39.827 73.1666C39.6493 73.5616 39.5604 73.8776 39.5604 74.1146C39.5604 74.4899 39.7579 74.6775 40.1529 74.6775C40.4492 74.6775 40.7652 74.5689 41.101 74.3516C41.4565 74.1344 41.812 73.8677 42.1675 73.5517C42.523 73.2357 42.8391 72.9296 43.1156 72.6333C43.295 72.4419 43.4491 72.2723 43.5778 72.1243ZM59.1295 79.5957H60.2405H61.3515V78.4847V77.3737H62.4625H63.5735V76.2627V75.1517V74.0407V72.9297V71.8187V70.7077V69.5967V68.4857V67.3747V66.2637V65.1527H62.4625H61.3515H60.2405H59.1295H58.0185H56.9075V66.2637V67.3747H55.7965H54.6855V68.4857V69.5967H55.7965H56.9075V70.7077V71.8187H58.0185H59.1295H60.2405H61.3515V72.9297V74.0407V75.1517V76.2627V77.3737H60.2405H59.1295H58.0185H56.9075V76.2627V75.1517H55.7965H54.6855V76.2627V77.3737H55.7965H56.9075V78.4847V79.5957H58.0185H59.1295ZM56.9075 69.5967V68.4857V67.3747H58.0185H59.1295H60.2405H61.3515V68.4857V69.5967H60.2405H59.1295H58.0185H56.9075ZM73.9426 75.1517H75.0536H76.1646V74.0407V72.9297H75.0536H73.9426V74.0407V75.1517ZM71.722 75.1517H70.611V74.0407V72.9297H71.722H72.833V74.0407V75.1517H71.722ZM67.2777 75.1517H68.3887H69.4997V74.0407V72.9297H68.3887H67.2777V74.0407V75.1517ZM14.5392 78.5233C15.3925 78.5233 16.0798 78.31 16.6012 77.8833C17.1227 77.4409 17.5019 76.8563 17.7389 76.1294C17.9759 75.3868 18.0944 74.5572 18.0944 73.6408C18.0944 72.6927 17.9759 71.8474 17.7389 71.1047C17.5019 70.3621 17.1227 69.7775 16.6012 69.3508C16.0798 68.9084 15.3925 68.6872 14.5392 68.6872C13.686 68.6872 12.9986 68.9084 12.4772 69.3508C11.9558 69.7775 11.5766 70.3621 11.3395 71.1047C11.1025 71.8474 10.984 72.6927 10.984 73.6408C10.984 74.5572 11.1025 75.3868 11.3395 76.1294C11.5766 76.8563 11.9558 77.4409 12.4772 77.8833C12.9986 78.31 13.686 78.5233 14.5392 78.5233ZM45.6042 63.5379C45.6042 63.8539 45.8017 64.0119 46.1968 64.0119C46.5128 63.9922 46.809 63.8539 47.0856 63.5971C47.3621 63.3404 47.5003 63.0639 47.5003 62.7676C47.5003 62.4516 47.3127 62.2936 46.9374 62.2936C46.7004 62.2936 46.4535 62.3923 46.1968 62.5898C45.9597 62.7676 45.7919 62.975 45.6931 63.212C45.6338 63.3305 45.6042 63.4391 45.6042 63.5379Z" fill="white"/>
<defs>
<linearGradient id="paint0_linear_235_3967" x1="38.3906" y1="0.270142" x2="38.3906" y2="46.1606" gradientUnits="userSpaceOnUse">
<stop stop-color="#7CF335"/>
<stop offset="1" stop-color="#674EFF"/>
</linearGradient>
</defs>
</svg>
