<svg width="113" height="104" viewBox="0 0 113 104" fill="none" xmlns="http://www.w3.org/2000/svg">
<g id="Group 632674">
<g id="Group 632673">
<path id="Union" fill-rule="evenodd" clip-rule="evenodd" d="M81.1663 42.4823C81.1663 65.9447 62.9966 84.9647 40.5832 84.9647C39.9142 84.9647 39.249 84.9477 38.588 84.9142C34.1196 78.0886 31.5053 69.8282 31.5053 60.9286C31.5053 53.3027 33.4249 46.1461 36.7857 39.9593L51.4353 42.3029L53.6649 57.5751L55.8946 42.3029L71.0193 39.8832L56.0361 37.4862L53.9117 22.9353C59.3798 20.063 65.5538 18.4463 72.0885 18.4463C72.7575 18.4463 73.4226 18.4632 74.0837 18.4967C78.5521 25.3224 81.1663 33.5828 81.1663 42.4823ZM53.3752 23.2223C46.4781 26.9809 40.7417 32.7522 36.8768 39.7925L51.2927 37.4863L53.3752 23.2223ZM74.0837 18.4967C66.7718 7.32752 54.4949 0 40.5832 0C18.1697 0 0 19.02 0 42.4823C0 65.2444 17.1013 83.8254 38.588 84.9142C45.8999 96.0834 58.1767 103.411 72.0885 103.411C94.502 103.411 112.672 84.391 112.672 60.9286C112.672 38.1665 95.5704 19.5856 74.0837 18.4967Z" fill="url(#paint0_linear_127_2504)"/>
</g>
</g>
<defs>
<linearGradient id="paint0_linear_127_2504" x1="56.3358" y1="0" x2="56.3358" y2="103.411" gradientUnits="userSpaceOnUse">
<stop stop-color="#7CF335"/>
<stop offset="1" stop-color="#674EFF"/>
</linearGradient>
</defs>
</svg>
